<svg xmlns="http://www.w3.org/2000/svg" x="0px" y="0px" width="100" height="100" viewBox="0,0,256,256">
<g fill="none" fill-rule="nonzero" stroke="none" stroke-width="1" stroke-linecap="butt" stroke-linejoin="miter" stroke-miterlimit="10" stroke-dasharray="" stroke-dashoffset="0" font-family="none" font-weight="none" font-size="none" text-anchor="none" style="mix-blend-mode: normal"><g transform="scale(5.12,5.12)"><path d="M42.37,24.8c-0.37,-4.8 -0.74,-19.68 -0.75,-19.82l-0.02,-0.98h-33.1v25l1.31,9.74l2.13,1.99l0.68,-0.73l0.5,-0.01c0.82,-0.61 1.74,-1.2 2.76,-1.74c0.85,0.34 2.1,1.15 2.82,1.63l1.24,-0.03l2.56,-1.47l1.88,1.38l2.15,-0.04l1.97,-1.34l1.65,1.27l2.18,-0.04l1.79,-1.48c0,0 1.22,0.22 3.01,1.38l0.49,-0.01l0.21,0.5l0.18,0.42l0.24,-0.1l2.63,-1.1l0.1,-0.52c0.07,-0.37 1.77,-8.95 1.39,-13.9zM17.5,27c-1.38,0 -2.5,-1.12 -2.5,-2.5c0,-1.38 1.12,-2.5 2.5,-2.5c1.38,0 2.5,1.12 2.5,2.5c0,1.38 -1.12,2.5 -2.5,2.5zM25.5,35.75c-3.5,0.25 -6.75,-3 -6.75,-3l0.87,-0.87c0,0 2.86,1.99 5.63,1.62c3.75,-0.5 5.5,-1.38 5.5,-1.38l1.13,0.76c0,0 -2.88,2.62 -6.38,2.87zM33.5,27c-1.38,0 -2.5,-1.12 -2.5,-2.5c0,-1.38 1.12,-2.5 2.5,-2.5c1.38,0 2.5,1.12 2.5,2.5c0,1.38 -1.12,2.5 -2.5,2.5z" fill="#f40606"></path><path d="M38.25,40.32l-0.24,0.1l-0.18,-0.42c0.14,0.09 0.28,0.2 0.42,0.32z" fill="#ffffff"></path><path d="M42.643,47.015c-3.43,-5.716 -7.074,-7.373 -8.284,-7.785l-3.088,2.55l-2.808,-2.17l-3.112,2.116l-2.918,-2.157l-3.236,1.867l-0.522,-0.369c-0.489,-0.345 -1.806,-1.227 -2.757,-1.701c-5.438,3.049 -7.75,7.537 -7.773,7.583l-1.788,-0.896c0.108,-0.216 2.716,-5.325 9.051,-8.686l0.409,-0.217l0.431,0.172c0.953,0.381 2.309,1.251 3.05,1.748l3.271,-1.888l2.832,2.093l3.138,-2.134l2.692,2.08l2.616,-2.161l0.456,0.082c0.217,0.039 5.376,1.045 10.056,8.845z" fill="#f40606"></path></g></g>
</svg>